<svg width="20" height="20" viewBox="0 0 20 20" fill="none" xmlns="http://www.w3.org/2000/svg">
<path d="M3.33333 8.4882H7.66667C7.851 8.4882 8 8.33887 8 8.15487C8 7.97087 7.851 7.82153 7.66667 7.82153H3.33333C3.149 7.82153 3 7.97087 3 8.15487C3 8.33887 3.149 8.4882 3.33333 8.4882Z" fill="white"/>
<path d="M12 9.82153H3.33333C3.149 9.82153 3 9.97087 3 10.1549C3 10.3389 3.149 10.4882 3.33333 10.4882H12C12.1843 10.4882 12.3333 10.3389 12.3333 10.1549C12.3333 9.97087 12.1843 9.82153 12 9.82153Z" fill="white"/>
<path d="M12 11.8215H3.33333C3.149 11.8215 3 11.9709 3 12.1549C3 12.3389 3.149 12.4882 3.33333 12.4882H12C12.1843 12.4882 12.3333 12.3389 12.3333 12.1549C12.3333 11.9709 12.1843 11.8215 12 11.8215Z" fill="white"/>
<path d="M18.024 0.844867L6.64333 0.821533C5.55333 0.821533 4.66667 1.7082 4.66667 2.7982V4.5062L1.97667 4.51187C0.886667 4.51187 0 5.39853 0 6.48853V13.5355C0 14.6255 0.886667 15.5119 1.97667 15.5119H4V18.8452C4 18.9829 4.08467 19.1065 4.21333 19.1562C4.25233 19.1712 4.293 19.1785 4.33333 19.1785C4.42533 19.1785 4.51567 19.1402 4.58 19.0695L7.81467 15.5112L13.3567 15.4885C14.4467 15.4885 15.3333 14.6019 15.3333 13.5122V13.4745L17.0867 15.4032C17.151 15.4739 17.2413 15.5122 17.3333 15.5122C17.3737 15.5122 17.4143 15.5049 17.4533 15.4899C17.582 15.4402 17.6667 15.3165 17.6667 15.1789V11.8455H18.0233C19.1133 11.8455 20 10.9589 20 9.8692V2.82153C20 1.73187 19.1137 0.8452 18.024 0.844867ZM14.6667 13.5119C14.6667 14.2342 14.079 14.8215 13.3553 14.8215L7.66533 14.8449C7.572 14.8452 7.48267 14.8849 7.42 14.9539L4.66667 17.9829V15.1782C4.66667 14.9942 4.51767 14.8449 4.33333 14.8449H1.97667C1.25433 14.8449 0.666667 14.2572 0.666667 13.5352V6.4882C0.666667 5.76587 1.25433 5.1782 1.97733 5.1782L5 5.17187C5.00033 5.17187 5.00033 5.17187 5.00067 5.17187L13.3567 5.15453C14.079 5.15453 14.6667 5.7422 14.6667 6.46453V12.6115V13.5119ZM19.3333 9.86853C19.3333 10.5909 18.7457 11.1782 18.0233 11.1782H17.3333C17.149 11.1782 17 11.3275 17 11.5115V14.3162L15.3333 12.4829V6.46487C15.3333 5.37487 14.4467 4.4882 13.356 4.4882L5.33333 4.50453V2.79787C5.33333 2.07553 5.921 1.48787 6.64267 1.48787L18.023 1.5112C18.0233 1.5112 18.0233 1.5112 18.0237 1.5112C18.746 1.5112 19.3337 2.09887 19.3337 2.8212V9.86853H19.3333Z" fill="white"/>
</svg>
