<svg width="26" height="24" viewBox="0 0 26 24" fill="none" xmlns="http://www.w3.org/2000/svg">
<path d="M22.625 9.25H3.375C3.14294 9.25 2.92038 9.15781 2.75628 8.99372C2.59219 8.82962 2.5 8.60706 2.5 8.375C2.5 8.14294 2.59219 7.92038 2.75628 7.75628C2.92038 7.59219 3.14294 7.5 3.375 7.5H22.625C22.8571 7.5 23.0796 7.59219 23.2437 7.75628C23.4078 7.92038 23.5 8.14294 23.5 8.375C23.5 8.60706 23.4078 8.82962 23.2437 8.99372C23.0796 9.15781 22.8571 9.25 22.625 9.25Z" fill="black"/>
<path d="M19.125 16.25H6.875C6.64294 16.25 6.42038 16.1578 6.25628 15.9937C6.09219 15.8296 6 15.6071 6 15.375C6 15.1429 6.09219 14.9204 6.25628 14.7563C6.42038 14.5922 6.64294 14.5 6.875 14.5H19.125C19.3571 14.5 19.5796 14.5922 19.7437 14.7563C19.9078 14.9204 20 15.1429 20 15.375C20 15.6071 19.9078 15.8296 19.7437 15.9937C19.5796 16.1578 19.3571 16.25 19.125 16.25Z" fill="black"/>
<path d="M15.625 23.25H10.375C10.1429 23.25 9.92038 23.1578 9.75628 22.9937C9.59219 22.8296 9.5 22.6071 9.5 22.375C9.5 22.1429 9.59219 21.9204 9.75628 21.7563C9.92038 21.5922 10.1429 21.5 10.375 21.5H15.625C15.8571 21.5 16.0796 21.5922 16.2437 21.7563C16.4078 21.9204 16.5 22.1429 16.5 22.375C16.5 22.6071 16.4078 22.8296 16.2437 22.9937C16.0796 23.1578 15.8571 23.25 15.625 23.25Z" fill="black"/>
<path d="M24.375 2.25H1.625C1.39294 2.25 1.17038 2.15781 1.00628 1.99372C0.842187 1.82962 0.75 1.60706 0.75 1.375C0.75 1.14294 0.842187 0.920376 1.00628 0.756282C1.17038 0.592187 1.39294 0.5 1.625 0.5H24.375C24.6071 0.5 24.8296 0.592187 24.9937 0.756282C25.1578 0.920376 25.25 1.14294 25.25 1.375C25.25 1.60706 25.1578 1.82962 24.9937 1.99372C24.8296 2.15781 24.6071 2.25 24.375 2.25Z" fill="black"/>
</svg>
