<svg width="241" height="63" viewBox="0 0 241 63" fill="none" xmlns="http://www.w3.org/2000/svg">
<rect width="250" height="70" rx="30" fill="#2A2A68"/>
<path d="M40.704 43V26.2H51.24V28.264H43.248V33.568H49.872V35.608H43.248V43H40.704ZM58.6213 43.288C57.4533 43.288 56.4133 43.032 55.5013 42.52C54.6053 41.992 53.9013 41.264 53.3893 40.336C52.8773 39.408 52.6213 38.328 52.6213 37.096C52.6213 35.848 52.8693 34.752 53.3653 33.808C53.8773 32.864 54.5813 32.128 55.4773 31.6C56.3893 31.072 57.4453 30.808 58.6453 30.808C59.8133 30.808 60.8293 31.072 61.6933 31.6C62.5573 32.112 63.2293 32.8 63.7093 33.664C64.1893 34.528 64.4293 35.48 64.4293 36.52C64.4293 36.68 64.4213 36.856 64.4053 37.048C64.4053 37.224 64.3973 37.424 64.3813 37.648H55.1173C55.1973 38.8 55.5733 39.68 56.2453 40.288C56.9333 40.88 57.7253 41.176 58.6213 41.176C59.3413 41.176 59.9413 41.016 60.4213 40.696C60.9173 40.36 61.2853 39.912 61.5253 39.352H64.0693C63.7493 40.472 63.1093 41.408 62.1493 42.16C61.2053 42.912 60.0293 43.288 58.6213 43.288ZM58.6213 32.896C57.7733 32.896 57.0213 33.152 56.3653 33.664C55.7093 34.16 55.3093 34.912 55.1653 35.92H61.8853C61.8373 34.992 61.5093 34.256 60.9013 33.712C60.2933 33.168 59.5333 32.896 58.6213 32.896ZM72.6369 43.288C71.4689 43.288 70.4289 43.032 69.5169 42.52C68.6209 41.992 67.9169 41.264 67.4049 40.336C66.8929 39.408 66.6369 38.328 66.6369 37.096C66.6369 35.848 66.8849 34.752 67.3809 33.808C67.8929 32.864 68.5969 32.128 69.4929 31.6C70.4049 31.072 71.4609 30.808 72.6609 30.808C73.8289 30.808 74.8449 31.072 75.7089 31.6C76.5729 32.112 77.2449 32.8 77.7249 33.664C78.2049 34.528 78.4449 35.48 78.4449 36.52C78.4449 36.68 78.4369 36.856 78.4209 37.048C78.4209 37.224 78.4129 37.424 78.3969 37.648H69.1329C69.2129 38.8 69.5889 39.68 70.2609 40.288C70.9489 40.88 71.7409 41.176 72.6369 41.176C73.3569 41.176 73.9569 41.016 74.4369 40.696C74.9329 40.36 75.3009 39.912 75.5409 39.352H78.0849C77.7649 40.472 77.1249 41.408 76.1649 42.16C75.2209 42.912 74.0449 43.288 72.6369 43.288ZM72.6369 32.896C71.7889 32.896 71.0369 33.152 70.3809 33.664C69.7249 34.16 69.3249 34.912 69.1809 35.92H75.9009C75.8529 34.992 75.5249 34.256 74.9169 33.712C74.3089 33.168 73.5489 32.896 72.6369 32.896ZM86.5086 43.288C85.3566 43.288 84.3406 43.016 83.4606 42.472C82.5806 41.928 81.8926 41.184 81.3966 40.24C80.9006 39.296 80.6526 38.224 80.6526 37.024C80.6526 35.824 80.9006 34.76 81.3966 33.832C81.8926 32.888 82.5806 32.152 83.4606 31.624C84.3566 31.08 85.3806 30.808 86.5326 30.808C87.4766 30.808 88.3006 30.992 89.0046 31.36C89.7246 31.728 90.2846 32.248 90.6846 32.92V25.72H93.2286V43H90.9486L90.6846 41.152C90.3006 41.712 89.7726 42.208 89.1006 42.64C88.4286 43.072 87.5646 43.288 86.5086 43.288ZM86.9646 41.08C88.0526 41.08 88.9406 40.704 89.6286 39.952C90.3326 39.2 90.6846 38.232 90.6846 37.048C90.6846 35.848 90.3326 34.88 89.6286 34.144C88.9406 33.392 88.0526 33.016 86.9646 33.016C85.8766 33.016 84.9806 33.392 84.2766 34.144C83.5726 34.88 83.2206 35.848 83.2206 37.048C83.2206 37.832 83.3806 38.528 83.7006 39.136C84.0206 39.744 84.4606 40.224 85.0206 40.576C85.5966 40.912 86.2446 41.08 86.9646 41.08ZM103.132 43.288C102.204 43.288 101.38 43.104 100.66 42.736C99.9561 42.368 99.3961 41.848 98.9801 41.176L98.7161 43H96.4361V25.72H98.9801V32.944C99.3641 32.384 99.8921 31.888 100.564 31.456C101.236 31.024 102.1 30.808 103.156 30.808C104.308 30.808 105.324 31.08 106.204 31.624C107.084 32.168 107.772 32.912 108.268 33.856C108.78 34.8 109.036 35.872 109.036 37.072C109.036 38.272 108.78 39.344 108.268 40.288C107.772 41.216 107.084 41.952 106.204 42.496C105.324 43.024 104.3 43.288 103.132 43.288ZM102.7 41.08C103.788 41.08 104.684 40.712 105.388 39.976C106.092 39.224 106.444 38.248 106.444 37.048C106.444 36.264 106.284 35.568 105.964 34.96C105.644 34.352 105.204 33.88 104.644 33.544C104.084 33.192 103.436 33.016 102.7 33.016C101.612 33.016 100.716 33.392 100.012 34.144C99.3241 34.896 98.9801 35.864 98.9801 37.048C98.9801 38.248 99.3241 39.224 100.012 39.976C100.716 40.712 101.612 41.08 102.7 41.08ZM115.82 43.288C114.812 43.288 113.98 43.12 113.324 42.784C112.668 42.448 112.18 42.008 111.86 41.464C111.54 40.904 111.38 40.296 111.38 39.64C111.38 38.488 111.828 37.576 112.724 36.904C113.62 36.232 114.9 35.896 116.564 35.896H119.684V35.68C119.684 34.752 119.428 34.056 118.916 33.592C118.42 33.128 117.772 32.896 116.972 32.896C116.268 32.896 115.652 33.072 115.124 33.424C114.612 33.76 114.3 34.264 114.188 34.936H111.644C111.724 34.072 112.012 33.336 112.508 32.728C113.02 32.104 113.66 31.632 114.428 31.312C115.212 30.976 116.068 30.808 116.996 30.808C118.66 30.808 119.948 31.248 120.86 32.128C121.772 32.992 122.228 34.176 122.228 35.68V43H120.02L119.804 40.96C119.468 41.616 118.98 42.168 118.34 42.616C117.7 43.064 116.86 43.288 115.82 43.288ZM116.324 41.224C117.012 41.224 117.588 41.064 118.052 40.744C118.532 40.408 118.9 39.968 119.156 39.424C119.428 38.88 119.596 38.28 119.66 37.624H116.828C115.82 37.624 115.1 37.8 114.668 38.152C114.252 38.504 114.044 38.944 114.044 39.472C114.044 40.016 114.244 40.448 114.644 40.768C115.06 41.072 115.62 41.224 116.324 41.224ZM130.834 43.288C129.666 43.288 128.618 43.024 127.69 42.496C126.778 41.968 126.058 41.24 125.53 40.312C125.018 39.368 124.762 38.28 124.762 37.048C124.762 35.816 125.018 34.736 125.53 33.808C126.058 32.864 126.778 32.128 127.69 31.6C128.618 31.072 129.666 30.808 130.834 30.808C132.306 30.808 133.538 31.192 134.53 31.96C135.538 32.728 136.186 33.768 136.474 35.08H133.81C133.65 34.424 133.298 33.912 132.754 33.544C132.21 33.176 131.57 32.992 130.834 32.992C130.21 32.992 129.634 33.152 129.106 33.472C128.578 33.776 128.154 34.232 127.834 34.84C127.514 35.432 127.354 36.168 127.354 37.048C127.354 37.928 127.514 38.672 127.834 39.28C128.154 39.872 128.578 40.328 129.106 40.648C129.634 40.968 130.21 41.128 130.834 41.128C131.57 41.128 132.21 40.944 132.754 40.576C133.298 40.208 133.65 39.688 133.81 39.016H136.474C136.202 40.296 135.562 41.328 134.554 42.112C133.546 42.896 132.306 43.288 130.834 43.288ZM139.233 43V25.72H141.777V36.016L146.337 31.096H149.385L144.321 36.496L150.129 43H146.913L141.777 36.904V43H139.233Z" fill="white"/>
<path d="M185.167 32.7964H195.783C196.235 32.7964 196.6 32.4306 196.6 31.9798C196.6 31.529 196.235 31.1631 195.783 31.1631H185.167C184.715 31.1631 184.35 31.529 184.35 31.9798C184.35 32.4306 184.715 32.7964 185.167 32.7964Z" fill="white"/>
<path d="M206.4 36.0625H185.167C184.715 36.0625 184.35 36.4284 184.35 36.8792C184.35 37.33 184.715 37.6958 185.167 37.6958H206.4C206.852 37.6958 207.217 37.33 207.217 36.8792C207.217 36.4284 206.852 36.0625 206.4 36.0625Z" fill="white"/>
<path d="M206.4 40.9629H185.167C184.715 40.9629 184.35 41.3288 184.35 41.7796C184.35 42.2304 184.715 42.5962 185.167 42.5962H206.4C206.852 42.5962 207.217 42.2304 207.217 41.7796C207.217 41.3288 206.852 40.9629 206.4 40.9629Z" fill="white"/>
<path d="M221.159 14.0699L193.276 14.0127C190.606 14.0127 188.433 16.185 188.433 18.8555V23.0401L181.843 23.054C179.172 23.054 177 25.2263 177 27.8968V45.162C177 47.8325 179.172 50.004 181.843 50.004H186.8V58.1707C186.8 58.508 187.007 58.811 187.323 58.9326C187.418 58.9694 187.518 58.9873 187.617 58.9873C187.842 58.9873 188.063 58.8934 188.221 58.7203L196.146 50.0024L209.724 49.9468C212.394 49.9468 214.567 47.7745 214.567 45.1048V45.0125L218.862 49.7378C219.02 49.9109 219.241 50.0048 219.467 50.0048C219.565 50.0048 219.665 49.9869 219.761 49.9501C220.076 49.8284 220.283 49.5254 220.283 49.1882V41.0215H221.157C223.828 41.0215 226 38.8492 226 36.1795V18.9127C226 16.243 223.828 14.0707 221.159 14.0699ZM212.933 45.104C212.933 46.8737 211.494 48.3127 209.721 48.3127L195.78 48.3699C195.551 48.3707 195.333 48.4679 195.179 48.6369L188.433 56.058V49.1865C188.433 48.7357 188.068 48.3699 187.617 48.3699H181.843C180.073 48.3699 178.633 46.9301 178.633 45.1612V27.896C178.633 26.1263 180.073 24.6865 181.844 24.6865L189.25 24.671C189.251 24.671 189.251 24.671 189.252 24.671L209.724 24.6285C211.494 24.6285 212.933 26.0683 212.933 27.838V42.8982V45.104ZM224.367 36.1778C224.367 37.9476 222.927 39.3865 221.157 39.3865H219.467C219.015 39.3865 218.65 39.7524 218.65 40.2032V47.0746L214.567 42.583V27.8389C214.567 25.1684 212.394 22.996 209.722 22.996L190.067 23.036V18.8547C190.067 17.085 191.506 15.6452 193.275 15.6452L221.156 15.7024C221.157 15.7024 221.157 15.7024 221.158 15.7024C222.928 15.7024 224.367 17.1422 224.367 18.9119V36.1778H224.367Z" fill="white"/>
</svg>
